# xmcd CD database file
#
# Track frame offsets:
#	150
#	19162
#	37507
#
# Disc length: 751 seconds
#
# Revision: 0
# Processed by: cddbd v1.5PL3 Copyright (c) Steve Scherf et al.
# Submitted via: CDex 1.51
#
DISCID=1302ed03
DTITLE=KIX･S - 抱いて…抱きしめて
DYEAR=1994
DGENRE=JPop
TTITLE0=抱いて…抱きしめて
TTITLE1=いつの日か この涙
TTITLE2=抱いて…抱きしめて (オリジナル･カラオケ)
EXTD=YEAR: 1994
EXTT0=
EXTT1=
EXTT2=
PLAYORDER=
